<?xml version="1.0"?><svg width="640" height="480" xmlns="http://www.w3.org/2000/svg">
 <defs>
  <filter id="filter3321" height="1.241113" y="-0.120557" width="1.913653" x="-0.456826">
   <feGaussianBlur id="feGaussianBlur3323" stdDeviation="6.379102"/>
  </filter>
  <filter id="filter3203" height="1.319747" y="-0.159874" width="1.034045" x="-0.017023">
   <feGaussianBlur id="feGaussianBlur3205" stdDeviation="3.735905"/>
  </filter>
 </defs>
 <metadata id="metadata7">image/svg+xml</metadata>
 <g>
  <title>Layer 1</title>
  <g id="layer1">
   <path fill="#666666" fill-rule="evenodd" stroke="#000000" stroke-width="0.869132" marker-start="none" marker-mid="none" marker-end="none" stroke-miterlimit="4" stroke-dashoffset="0" filter="url(#filter3203)" id="path2186" d="m80.55307,334.897095c18.675415,-1.721527 42.839035,-4.175018 63.302353,-7.086182c26.503693,-3.770447 51.34343,-4.157227 77.852448,-4.157227c22.733017,0 41.477432,3.686676 63.837784,6.582275c22.315247,2.889801 44.65094,6.907532 67.176086,7.590118c20.990234,0.636078 41.831116,-1.354248 62.766937,-1.354248c16.999847,0 33.844452,-1.5802 50.799377,-2.614044c8.114716,-0.494781 16.175232,0.288635 24.250153,-0.661346c3.357758,-0.39505 6.8284,-1.424042 10.140961,-1.952667c4.370026,-0.697357 11.406952,1.824188 15.872833,2.267609c10.92041,1.08429 22.032715,0.481842 32.879395,1.385712c2.445923,0.203857 2.930359,0.923431 4.503662,2.58252c1.698242,1.790955 3.321411,3.441315 4.818542,5.480042c1.218018,1.65863 -0.092834,1.765167 2.960388,3.11792c6.252075,2.769897 11.250671,5.715454 17.101074,9.290771c5.382751,3.289551 11.809875,8.511566 16.219299,13.038635c1.109802,1.139404 -1.926697,5.508881 -2.488037,6.519287c-2.309875,4.157898 -7.467651,5.169342 -11.904663,5.542999c-10.730286,0.903625 -22.762634,-1.17868 -33.509277,-2.04715c-16.463318,-1.330383 -32.931946,-2.337219 -49.413605,-3.086426c-18.532776,-0.842407 -37.280487,3.401367 -55.932831,3.401367c-19.923401,0 -39.771515,-0.312683 -59.680573,-1.039307c-21.710907,-0.792358 -43.39328,-1.944336 -65.128998,-2.645508c-19.785736,-0.638245 -39.52301,0.251953 -59.302643,0.251953c-15.634613,0 -24.3582,-4.475494 -39.857605,-3.368347c-13.343124,0.953094 -32.025955,6.220123 -45.080978,4.313202c-12.921036,-1.88739 -28.550369,0.125977 -41.760651,0.125977c-11.850586,0 -23.752495,0.575836 -35.587898,1.007782c-10.234985,0.373535 -19.869095,-0.26178 -30.045006,-0.724335c-7.010109,-0.318665 -13.290337,-0.29483 -13.290337,-8.503448c0,-6.186188 1.486259,-14.629608 3.52729,-20.471252c1.826309,-5.227081 2.215923,-8.378052 6.393219,-12.503235c2.971687,-2.93457 8.442055,-4.027954 12.408524,-4.314697c3.526161,-0.254913 4.058678,1.191376 6.172775,4.03125z"/>
   <path fill="#d2c6af" fill-opacity="0.982036" fill-rule="evenodd" stroke="#000000" stroke-width="0.892849" marker-start="none" marker-mid="none" marker-end="none" stroke-miterlimit="4" stroke-dashoffset="0" id="path2176" d="m103.328964,190.445602l4.043396,-55.309372l428.544266,3.297958l2.221069,145.247208l-436.631126,8.931946l1.822395,-102.16774z"/>
   <path fill="#d2c6af" fill-opacity="0.982036" fill-rule="evenodd" stroke="#000000" stroke-width="0.922758" marker-start="none" marker-mid="none" marker-end="none" stroke-miterlimit="4" stroke-dashoffset="0" id="path3137" d="m91.686401,284.37323c0,0 114.796539,6.093018 228.876282,6.093018c114.079742,0 227.442688,-6.093018 227.442688,-6.093018l0.080933,61.168243c0,0 -134.699219,6.167969 -224.963074,5.772217c-89.629089,-0.395782 -230.041367,-7.355316 -230.041367,-7.355316l-1.395462,-59.585144z"/>
   <path fill="#666666" fill-rule="evenodd" stroke="#000000" stroke-width="0.869132" marker-start="none" marker-mid="none" marker-end="none" stroke-miterlimit="4" stroke-dashoffset="0" filter="url(#filter3321)" id="path2192" d="m305.710205,152.493759c6.909668,-0.385834 15.950958,0.210251 23.747345,1.644089c1.592773,0.292923 2.659027,10.921173 2.861816,12.604568c0.880524,7.308289 2.678314,13.134445 1.156952,19.91153c-1.052185,4.687057 -0.920502,9.829193 -0.974243,14.613983c-0.121948,10.854187 2.105164,27.417557 4.140564,38.057236c1.149048,6.006516 0.121765,11.450775 0.121765,17.658539c0,4.039154 0,8.078278 0,12.117432c0,4.412933 -2.154114,5.857239 -5.541016,8.098572c-4.233368,2.801575 -15.91214,4.216431 -20.885498,5.297577c-11.006348,2.392731 -5.657318,-20.736298 -4.993042,-25.696228c1.269775,-9.481033 0.73114,-21.363647 -0.365295,-30.932922c-1.089661,-9.50946 -0.974304,-19.033691 -0.974304,-28.619034c0,-10.317322 0.531464,-20.691925 1.887634,-30.811172c0.713409,-5.322998 1.118073,-8.676041 -0.182678,-13.944168z"/>
   <g id="g2182">
    <path fill="#d3c7b0" fill-rule="evenodd" stroke="#000000" stroke-width="0.869132" marker-start="none" marker-mid="none" marker-end="none" stroke-miterlimit="4" stroke-dashoffset="0" id="path2178" d="m112.409439,140.127426c18.04686,-5.326248 35.663849,1.213638 53.982452,-2.430252c16.946014,-0.409241 33.845688,-1.357498 50.464417,-4.672256c14.860092,-0.536072 28.913269,10.046112 42.698837,9.543533c9.046722,-0.329834 12.283539,0.927002 24.908722,-1.156189c10.183014,-1.099579 17.15271,-0.542938 32.842773,-0.680878c-1.924469,16.127319 -4.112793,35.725693 1.754852,51.707947c5.340454,21.343094 -0.058533,43.152893 -1.696899,64.459839c1.98407,12.642151 -20.664001,7.628265 -29.757202,9.446899c-19.947723,-0.895691 -40.606094,2.169495 -59.881424,-4.707306c-20.358673,-4.199371 -41.644943,-0.341888 -61.820679,-4.819061c-14.266617,-4.451553 -29.819061,-1.739624 -43.827896,-7.473816c-11.231926,-1.458771 -27.972321,3.101898 -19.187744,-14.565033c3.974068,-15.425674 1.828461,-31.951523 7.420349,-47.064682c4.4515,-16.292816 -0.410294,-31.713577 2.099442,-47.588745z"/>
    <path fill="#d3c7b0" fill-rule="evenodd" stroke="#000000" stroke-width="0.869132" marker-start="none" marker-mid="none" marker-end="none" stroke-miterlimit="4" stroke-dashoffset="0" d="m322.150665,138.610504c2.095215,-7.37532 39.151337,-3.570145 47.372864,-3.957977c15.682373,-0.739731 31.563721,0.452484 47.068451,2.435684c6.545502,0.837219 11.398499,1.441132 18.815155,0.669815c12.429596,-1.292725 25.422272,0.923798 37.81308,1.3396c7.897247,0.265015 16.286804,0.600555 24.11264,1.461395c7.036163,0.773987 14.345062,1.948532 21.433502,1.948532c5.670715,0 6.401306,1.421097 11.264771,-0.913376c1.391052,-0.667709 0.918152,12.811386 0.547974,15.649139c-1.561462,11.97168 -6.221863,24.34726 -3.896912,36.230484c1.643127,8.398544 7.061951,15.540451 9.681519,23.504166c2.05542,6.248413 1.3396,14.075531 1.3396,20.58136c0,3.677689 1.035156,8.476303 1.035156,12.300079c0,2.129807 -28.252808,2.192108 -30.688843,2.192108c-15.541687,0 -31.126892,-1.180344 -46.642212,-0.304459c-10.863525,0.613281 -18.128754,5.789078 -28.801208,7.550552c-12.795288,2.111847 -25.632355,2.03595 -38.361084,5.480225c-8.653107,2.341492 -19.576843,2.192139 -28.435913,2.192139c-11.766052,0 -21.136841,1.066345 -32.393799,-0.791626c-3.191254,-0.526733 -7.052856,-0.489471 -9.620697,-1.035156c-1.506866,-0.320221 0.980988,-19.482498 1.156921,-21.433838c0.840118,-9.317657 3.544647,-17.593414 -0.91333,-26.183365c-3.984375,-7.677307 -7.179199,-13.840134 -3.714325,-21.25116c3.558289,-7.611008 4.581329,-16.294785 2.740051,-24.478424c-1.638824,-7.283798 0.934998,-16.126907 1.826721,-23.50415c0.402496,-3.329773 -2.067078,-6.39595 -2.740082,-9.681747z" id="path2180"/>
   </g>
   <path fill="#666666" fill-rule="evenodd" stroke="#000000" stroke-width="0.869132" marker-start="none" marker-mid="none" marker-end="none" stroke-miterlimit="4" stroke-dashoffset="0" id="path2190" d="m94.73307,209.05394c3.176514,-0.413681 6.708794,1.447388 9.924316,2.353607c3.308167,0.932312 5.994888,3.744812 6.783257,7.069733c0.938377,3.95755 -1.581528,8.269867 -1.324432,12.287033c0.163506,2.554825 1.635674,6.706421 3.418472,8.519485c2.555527,2.598877 8.622162,3.131439 11.955719,3.928635c4.68811,1.121078 9.469193,1.649857 14.18399,2.613098c3.62471,0.740555 7.910019,-0.154953 11.20401,1.601898c1.517654,0.809433 1.849686,1.373566 3.114212,2.434128c1.626266,1.363968 1.396027,5.8853 1.396027,7.830429c0,5.310944 -5.841766,3.045135 -9.074173,2.487823c-7.133011,-1.229858 -14.147247,-2.216278 -21.360992,-2.863708c-6.14267,-0.55127 -12.250053,-1.281616 -18.398918,-1.789795c-5.404732,-0.446701 -14.151794,0.297058 -17.002892,-5.405228c-1.924728,-3.849518 0.159203,-9.512115 1.369171,-13.28038c1.310143,-4.0802 1.378143,-8.391815 1.378143,-12.636032c0,-3.208237 -0.101967,-6.741577 -0.393761,-9.95134c-0.144104,-1.58522 -0.043442,-3.21347 1.038071,-4.241821c0.316284,-0.300751 0.658569,-0.794098 0.876991,-1.020203c0.044502,-0.046066 0.113358,0.059677 0.912788,0.062637z"/>
   <path fill="#d2c6af" fill-opacity="0.982036" fill-rule="evenodd" stroke="#000000" stroke-width="0.826179" marker-start="none" marker-mid="none" marker-end="none" stroke-miterlimit="4" stroke-dashoffset="0" id="path2160" d="m30.012318,201.489059c-7.427166,18.482773 4.165546,127.998703 7.449757,151.421066c16.518757,2.614624 42.948746,2.418121 53.4683,3.173645c0.441048,-24.923401 3.638618,-48.768951 5.058723,-56.334442c5.104042,-15.154114 -0.55629,-22.400269 2.155998,-35.265228c2.410133,-16.326965 7.762741,-51.815018 3.825066,-55.864594c-3.777191,-3.884506 -20.358879,-4.981094 -28.921028,-5.312851c-20.897659,-1.918793 -24.155018,-3.291718 -43.036816,-1.817596z"/>
   <path fill="#d2c6af" fill-opacity="0.982036" fill-rule="evenodd" stroke="#000000" stroke-width="0.980128" marker-start="none" marker-mid="none" marker-end="none" stroke-miterlimit="4" stroke-dashoffset="0" id="path2172" d="m97.932625,283.498749l0.514915,-16.153839l2.072029,-20.234665c0,0 26.674049,0.254257 53.02874,4.139648c27.309235,4.026154 28.6129,7.241501 56.061279,10.172531c25.064926,2.676483 30.759216,6.528687 58.361847,6.840912c25.382324,0.285461 40.367615,0.393463 51.308044,-0.339905c1.609161,5.63559 3.193024,3.328522 3.886353,7.220581c0.693359,3.89212 -1.945862,4.599701 -1.945862,4.599701l-1.797821,6.080872l1.460754,9.931854c0,0 -25.806427,-0.827789 -51.441437,-1.284485c-25.63501,-0.456635 -37.129669,0.399597 -60.135406,-2.950562c-17.76506,-2.586975 -111.373436,-8.022644 -111.373436,-8.022644z"/>
   <path fill="#28220b" fill-opacity="0.982036" fill-rule="evenodd" stroke="#000000" stroke-width="0.980128" marker-start="none" marker-mid="none" marker-end="none" stroke-miterlimit="4" stroke-dashoffset="0" id="path2177" d="m50.423584,354.118744c1.480301,3.464935 2.492268,7.199707 1.842678,10.98288c-0.015354,3.338287 0.760563,8.342834 1.14682,11.637909c6.483662,-1.486053 12.699467,0.812439 19.206493,0.520111c1.85479,-2.8815 1.407982,-8.46347 2.376152,-11.722748c0.43956,-3.262909 2.082458,-6.599884 2.270958,-9.698944c-3.335487,-0.102722 -6.811241,0.212036 -10.219589,-0.182892c-4.863663,-0.328705 -9.701653,-0.957153 -14.565891,-1.278534"/>
   <path fill="#28220b" fill-opacity="0.982036" fill-rule="evenodd" stroke="#000000" stroke-width="0.980128" marker-start="none" marker-mid="none" marker-end="none" stroke-miterlimit="4" stroke-dashoffset="0" id="path2183" d="m559.520386,356.969055c1.958008,3.219269 3.490601,6.772217 3.385498,10.609314c0.459473,3.306519 1.939026,8.149963 2.789856,11.356628c6.206421,-2.392792 12.685913,-1.001343 19.085327,-2.215881c1.42627,-3.115936 0.19043,-8.577667 0.685242,-11.941467c-0.028748,-3.292267 1.122925,-6.828949 0.868958,-9.923309c-3.316223,0.372589 -6.711914,1.178284 -10.141785,1.271942c-4.860962,0.36615 -9.739136,0.431915 -14.59967,0.805359"/>
   <path fill="#666666" fill-rule="evenodd" stroke="#000000" stroke-width="0.869132" marker-start="none" marker-mid="none" marker-end="none" stroke-miterlimit="4" stroke-dashoffset="0" id="path2188" d="m512.167847,225.269516c3.733704,-2.657822 10.295166,-5.593216 15.0672,-8.678192c2.071045,-1.338928 3.548828,-2.562683 5.885864,-3.622208c4.553772,-2.064346 4.944946,1.591965 5.559143,5.106293c0.761719,4.359299 2.321594,8.702911 3.798157,12.828659c1.398132,3.906631 1.537231,8.219299 1.307983,12.3004c-0.207214,3.688217 -1.055176,6.963364 -0.578613,10.690552c0.281311,2.198975 -5.935547,2.650848 -7.847839,3.093964c-8.059937,1.867584 -16.614136,2.327545 -24.85199,2.842407c-5.247955,0.328003 -10.166809,-2.143219 -14.916199,-3.97435c-4.455566,-1.71785 -10.060638,-1.329483 -14.61438,-0.377304c-5.199951,1.08728 -10.700165,0.083801 -9.030243,-6.741333c1.020996,-4.172745 8.872498,-9.087738 12.501434,-10.388687c5.634705,-2.020035 9.717316,-3.880219 14.513763,-7.420486c3.435699,-2.535889 6.146729,-4.719193 10.262787,-6.313721c1.516479,-0.587479 0.439148,-0.439621 2.942932,0.654007z"/>
   <path fill="#d2c6af" fill-opacity="0.982036" fill-rule="evenodd" stroke="#000000" stroke-width="0.791571" marker-start="none" marker-mid="none" marker-end="none" stroke-miterlimit="4" stroke-dashoffset="0" id="path3135" d="m535.23822,212.78656c1.495483,23.416672 10.704956,111.873505 13.461243,144.587677c15.908752,0.048157 42.911987,-3.370056 52.908447,-4.206726c3.669434,-24.45813 3.621643,-37.959961 5.256348,-56.503754c1.353027,-15.347229 1.081055,-21.219482 1.724121,-33.889221c-0.153564,-15.926483 7.996765,-52.957611 3.697083,-56.236465c-4.124573,-3.145279 -28.244812,0.660217 -36.339233,1.611298c-19.920288,1.263565 -23.184326,0.436478 -40.708008,4.637192z"/>
   <path fill="#d2c6af" fill-opacity="0.982036" fill-rule="evenodd" stroke="#000000" stroke-width="0.980128" marker-start="none" marker-mid="none" marker-end="none" stroke-miterlimit="4" stroke-dashoffset="0" id="path2174" d="m321.076752,295.843262c0,0 0.024017,-1.146912 0.066956,-3.102173c0.042908,-1.955322 -1.376434,-5.311432 -1.300903,-8.544922c0.075531,-3.23349 4.460144,-3.826447 4.558014,-7.661072c0.097809,-3.834656 -1.777039,-4.108276 -0.186035,-8.163208c16.309174,2.739349 44.911133,-2.394257 57.239716,-2.334229c18.508667,0.085724 31.08725,-2.481201 47.443726,-5.636566c34.458618,-6.647568 35.14798,-6.73999 60.828491,-10.668137c27.444122,-4.197906 48.987946,-4.031921 48.987946,-4.031921l3.675293,40.506973c0,0 -83.473022,3.669617 -110.574585,5.892853c-26.947327,2.210571 -53.198334,3.683777 -73.96698,3.708344c-20.768616,0.024567 -36.771637,0.034058 -36.771637,0.034058z"/>
   <path fill="#d3c7b0" fill-rule="evenodd" stroke="#000000" stroke-width="0.980128" marker-start="none" marker-mid="none" marker-end="none" stroke-miterlimit="4" stroke-dashoffset="0" id="path2173" d="m393.783325,261.250885c8.20932,-4.513092 22.770081,-8.352341 29.251709,-16.512177c11.725494,-5.568848 17.669952,-13.600159 25.536896,-19.41626c20.101715,-13.297089 32.480896,-19.902481 55.410828,-25.853424c15.213287,-3.411575 31.291962,-3.97261 46.688812,-3.286255c11.002869,-0.723053 22.068481,-1.5914 32.839966,0.24527c-7.819763,4.803452 -14.933533,12.060577 -24.542847,13.092896c-8.467346,3.140488 -19.784851,0.289948 -25.41925,8.969772c-5.02478,8.232788 -11.039551,16.090988 -20.639587,19.216324c-11.29425,4.786743 -22.279663,10.287903 -33.686859,14.789124c-13.542725,1.87381 -27.022369,4.071747 -40.504761,6.291565c-14.121429,0.657227 -27.354889,5.063416 -41.644653,5.716187c-2.84201,2.181946 -8.122894,-1.857208 -3.290253,-3.253021z"/>
   <path fill="#d3c7b0" fill-rule="evenodd" stroke="#000000" stroke-width="0.980128" marker-start="none" marker-mid="none" marker-end="none" stroke-miterlimit="4" stroke-dashoffset="0" id="path2175" d="m392.349579,263.035278c15.88205,-4.133087 34.057098,-16.123489 50.439667,-18.717728c26.504517,-9.869583 52.11322,-21.940002 77.693665,-33.970978c14.535522,-6.664246 31.060547,-7.039978 45.684204,-13.648041c5.048279,-1.252777 10.281982,-1.763443 15.476746,-1.487244"/>
   <path fill="#d3c7b0" fill-rule="evenodd" stroke="#000000" stroke-width="0.980128" marker-start="none" marker-mid="none" marker-end="none" stroke-miterlimit="4" stroke-dashoffset="0" id="path2182" d="m71.630768,187.583069c8.016113,1.365524 15.903488,3.437286 23.804138,5.202835c6.416672,-0.453156 13.059303,-0.245682 18.231567,4.12706c7.521484,4.166412 14.927399,9.768387 17.658051,18.28981c3.173248,6.663101 5.131104,13.956299 8.494644,20.455566c2.394272,3.953964 16.971603,11.681931 17.403824,14.643188c-7.342896,-1.084427 -33.299652,-3.248688 -40.229721,-4.613419c-13.055954,-1.861099 -13.79287,-4.60144 -12.186798,-14.141144c-0.133858,-5.278793 -1.275902,-3.389191 -0.015457,-13.299698c0.771172,-6.946823 -7.04319,-14.95105 -13.753922,-14.007782c-10.369438,-1.366821 -19.094849,-3.088318 -20.747681,-12.5784c-0.183907,-1.496948 0.625916,-2.842484 1.341354,-4.078018z"/>
   <path fill="none" fill-rule="evenodd" stroke="#000000" stroke-width="0.980128" marker-start="none" marker-mid="none" marker-end="none" stroke-miterlimit="4" stroke-dashoffset="0" id="path3160" d="m72.209709,188.155365c6.467018,-1.141205 11.152084,4.199768 16.492554,6.799423c7.667953,4.515503 16.044754,8.098083 22.844292,13.885086c3.749641,4.824799 7.937805,9.217819 12.260361,13.513901c3.849594,4.482086 7.28743,9.241745 10.232193,14.353653c3.107346,4.363098 6.913956,8.207611 11.64296,10.814178l10.605255,2.217499"/>
   <path fill="#666666" fill-rule="evenodd" stroke="#000000" stroke-width="0.869132" marker-start="none" marker-mid="none" marker-end="none" stroke-miterlimit="4" stroke-dashoffset="0" id="path3325" d="m113.904877,-103.677109c0,0 0,0 0,0z"/>
  </g>
 </g>
</svg>